# xmcd CD database file
#
# Track frame offsets:
#	150
#	8930
#	14825
#	20482
#	32597
#	49501
#	58826
#	74975
#	82091
#	90380
#	103532
#	110969
#	119003
#	132385
#
# Disc length: 1977 seconds
#
# Revision: 0
# Processed by: cddbd v1.5.1PL0 Copyright (c) Steve Scherf et al.
# Submitted via: CDex 1.51
#
DISCID=cd07b70e
DTITLE=Banjo Man - Banjo Man
DYEAR=1900
DGENRE=Kids
TTITLE0=This Land Is Your LandCripple Creek
TTITLE1=Cripple Creek
TTITLE2=I've Been Workin' on the Railroad
TTITLE3=She'll Be Comin' 'Round the Mountain
TTITLE4=Grandfather's Clock
TTITLE5=Twinkle, Twinkle, Little Star
TTITLE6=Momma Don't Allow
TTITLE7=Banjo Man
TTITLE8=Boil That Cabbage Down
TTITLE9=Medley: Oh, Susanna-Old Joe Clark-Sally Ann
TTITLE10=Salty Dog Blues
TTITLE11=You Are My Sunshine
TTITLE12=Two Little Boys
TTITLE13=The MTA Song
EXTD=
EXTT0=
EXTT1=
EXTT2=
EXTT3=
EXTT4=
EXTT5=
EXTT6=
EXTT7=
EXTT8=
EXTT9=
EXTT10=
EXTT11=
EXTT12=
EXTT13=
PLAYORDER=
